<svg viewBox="0 0 16 16">
    <path d="M7.646,4.354c0.194-0.194,0.513-0.194,0.707,0L9.5,5.5l2-2L8.707,0.707c-0.389-0.389-1.025-0.389-1.414,0L0.707,7.293c-0.389,0.389-0.389,1.025,0,1.414L2,10l2.354-2.354L7.646,4.354z"/>
    <rect x="3.587" y="9.587" transform="matrix(0.7077 -0.7065 0.7065 0.7077 -6.3106 6.7485)" width="2.828" height="2.828"/>
    <path d="M15.293,7.293L12.5,4.5l-2,2l1.146,1.146c0.194,0.194,0.194,0.513,0,0.707l-3.293,3.293L6,14l1.293,1.293c0.389,0.389,1.025,0.389,1.414,0l6.586-6.586C15.682,8.318,15.682,7.682,15.293,7.293z"/>
</svg>